<?xml version="1.0"?>
<svg width="640" height="480" xmlns="http://www.w3.org/2000/svg" xmlns:svg="http://www.w3.org/2000/svg">
 <!-- Created with SVG-edit - https://github.com/SVG-Edit/svgedit-->
 <g class="layer">
  <title>Layer 1</title>
  <path d="m204.645277,207.808002c2.408152,-1.050129 3.503152,-1.04627 4.721868,-0.313225c0.862969,0.519072 1.348146,1.0555 2.360939,2.192149c0.544708,0.611321 1.063258,1.284958 1.573953,2.005187c0.809322,1.141392 1.311631,1.967315 1.836285,2.799833c0.524654,0.832518 1.301584,2.047393 1.839777,2.805765c0.539144,0.759732 1.13778,1.537211 1.794316,2.379486c0.73525,0.943261 1.146966,1.456656 2.007013,2.565888c0.44665,0.57605 0.899995,1.155313 1.753207,2.321573c0.410475,0.561075 1.449997,2.10517 1.71365,2.564392c0.474269,0.826059 0.98008,1.939353 1.385082,2.958766c0.399617,1.005865 0.668384,1.690925 1.049308,2.768641c0.406722,1.150724 0.66238,1.966261 0.890818,2.801312c0.227098,0.830139 0.468825,2.041886 0.61995,3.161877c0.093165,0.690414 0.166115,1.688902 0.808181,2.760091c0.481394,0.803146 1.263597,1.485927 1.65617,2.636447c0.295805,0.866923 0.169638,1.775848 0.779981,2.946884c0.47527,0.911866 0.753743,1.862589 0.753743,2.611188c0,1.220943 0,2.036378 0,2.851813c0,1.220943 0,2.308757 0,3.269203c0,0.92832 -0.121905,2.032537 0.074972,2.880778c0.241388,1.039998 0.854273,1.823935 1.126482,2.947615c0.204342,0.843567 0.56189,1.873043 1.049308,2.673588c0.545679,0.896244 0.958826,1.692268 1.684129,2.452255c0.881392,0.923577 1.19591,1.697231 1.68589,2.767163c0.362972,0.792624 1.089076,1.65188 1.724357,2.385418c0.815546,0.941663 1.141472,1.593882 2.054887,2.645354c0.595834,0.685909 1.185623,1.437737 2.37645,1.957269c0.997132,0.435017 2.221242,0.270713 3.363455,0.270713c1.282771,0 2.327496,0 3.635624,0c1.147236,0 2.210535,0 3.273833,0c1.147236,0 2.457126,0 3.527409,0c1.070283,0 2.381914,0 3.574622,0c1.234697,0 2.271537,0 3.391014,0c1.559963,0 2.34869,0 3.554728,0c0.834639,0 2.623922,0 3.583167,0c0.98022,0 1.960461,0.005405 3.38487,0c1.324139,-0.005031 2.17529,0.031855 3.364776,-0.190107c1.205917,-0.225021 2.343147,-0.766752 3.102454,-1.090227c1.392687,-0.593303 2.352833,-0.801769 3.6015,-1.065002c1.087755,-0.229305 2.367484,-0.672107 3.320845,-1.019855c1.007139,-0.367364 1.510849,-0.580215 3.092827,-1.067008c1.030555,-0.317117 2.05955,-0.546083 2.998382,-0.862214c1.698339,-0.571852 2.360359,-1.010336 3.317103,-1.584091c1.240401,-0.743839 1.91633,-1.068572 2.997521,-1.453206c1.060156,-0.377155 2.393241,-0.784567 3.279076,-1.16043c0.909431,-0.385858 2.212996,-1.071155 2.932796,-1.46507c0.756385,-0.413939 2.312906,-1.297741 3.098951,-1.740814c0.773917,-0.43624 1.884708,-1.065002 2.931055,-1.598183c0.928284,-0.473024 1.836335,-0.866974 3.060485,-1.485332c1.046086,-0.528421 1.764805,-0.944995 2.541724,-1.315249c1.546454,-0.736972 2.357356,-0.997876 3.535494,-1.42368c0.788547,-0.285008 2.371166,-0.947545 3.161895,-1.360549c0.829376,-0.433198 1.677444,-0.929153 3.030744,-1.754175c0.963229,-0.587218 1.447365,-0.896431 2.430888,-1.5076c0.971675,-0.603808 2.364341,-1.453699 3.225519,-1.964697c0.790709,-0.469183 1.544092,-0.84797 2.879679,-1.756028c0.743396,-0.505423 1.657691,-1.345879 2.341265,-1.829732c0.928264,-0.657046 1.890853,-1.181643 2.859785,-1.771428c1.139531,-0.693626 1.953876,-1.278193 2.848878,-2.026723c0.642326,-0.537209 1.537567,-1.324751 2.37689,-2.018547c0.883733,-0.730512 1.779115,-1.320518 2.663909,-1.874845c0.672167,-0.421112 1.75706,-1.106358 2.713123,-1.960073c0.632319,-0.564627 1.404095,-1.471377 1.882187,-2.015759c0.945236,-1.076289 1.71373,-1.825346 2.343447,-2.698082c0.549361,-0.761381 1.212902,-1.609334 1.836275,-2.339387c0.837722,-0.981082 1.173755,-1.65737 2.126596,-2.726486c0.626695,-0.703162 1.401773,-1.369711 1.983177,-2.19067c0.603279,-0.851845 1.02329,-1.83733 1.378097,-2.489396c0.549762,-1.010336 1.218426,-1.988919 1.692875,-2.591878c0.83572,-1.062078 1.572832,-1.772193 2.394162,-2.53099c0.799695,-0.738825 1.477065,-1.707515 1.822285,-2.519109c0.369957,-0.869761 0.645828,-2.023834 0.767753,-2.787951c0.148263,-0.929255 0.520842,-2.032197 0.882292,-2.872789c0.429418,-0.998641 0.882252,-2.043483 1.393607,-2.578143c0.814766,-0.851879 1.7003,-1.700376 2.169646,-2.398983c0.472268,-0.702975 0.961387,-1.795378 1.358843,-2.678024c0.38959,-0.865189 1.075126,-2.010813 1.573973,-2.713686c0.692321,-0.975456 0.966851,-1.804523 1.442782,-2.547513c0.675669,-1.054803 1.862813,-1.403537 2.623261,-1.96842c0.982002,-0.729459 2.136223,-1.295548 3.029643,-1.379502c1.012823,-0.095173 2.39176,-0.063675 3.626458,-0.063675c0.889277,0 2.159819,0 3.214351,0c1.078168,0 2.742204,0 3.639346,0c1.530222,0 2.561178,0 3.639326,0c1.388604,0 2.325094,0 3.214391,0c1.568689,0 2.623261,0 3.70141,0c1.352939,0 2.279623,-0.000068 3.229882,0c1.486072,0.000102 2.362,-0.017746 3.771618,0.040099c0.961147,0.039453 2.36208,0.172514 3.235126,0.367806c1.341852,0.30017 2.267414,0.64989 3.792153,1.311169c0.566553,0.245725 1.746933,0.818427 2.359158,1.135527c1.276886,0.661364 1.924896,1.020365 3.224438,1.787032c0.660258,0.38953 1.966805,1.205509 2.623261,1.613056c0.655175,0.406783 1.960521,1.206886 2.623261,1.577411c1.298381,0.725889 2.62166,1.343806 3.28496,1.63087c1.326481,0.574078 2.012277,0.836224 2.692349,1.125889c2.122153,0.90386 2.841653,1.262401 3.574842,1.63087c0.745157,0.374486 2.227386,1.168521 2.959054,1.577411c0.725584,0.405474 1.438278,0.808177 2.791138,1.613056c1.271803,0.756656 1.882147,1.129493 3.060485,1.903079c0.595774,0.391127 1.209199,0.786912 3.060485,2.181559c0.67651,0.509655 1.362106,1.062112 2.07368,1.634219c0.733029,0.58936 1.478106,1.197656 2.238954,1.814688c0.770295,0.624682 1.54075,1.258662 3.119926,2.492371c0.782023,0.610947 1.567048,1.203248 2.343227,1.782953c0.761088,0.568435 1.509568,1.118206 2.236993,1.652594c0.703568,0.516846 2.63619,1.946441 3.204745,2.383582c0.536613,0.412596 1.517493,1.181082 2.356556,1.917918c0.772456,0.678328 1.769068,1.692744 2.381053,2.358119c0.596414,0.648445 1.12406,1.330955 2.458227,2.432214c0.672147,0.554803 1.456931,1.034524 2.207452,1.59412c1.199192,0.89412 1.965565,1.618649 2.734538,2.372993c0.383026,0.375727 1.055213,1.16507 2.47788,2.335104c0.583885,0.480215 1.564646,1.015775 2.52031,2.150572c0.595854,0.707531 0.79211,1.165869 1.311631,2.065513c0.529888,0.917611 1.290136,2.216355 1.834554,2.92516c0.493222,0.642173 1.315914,1.472754 1.881746,2.43592c0.61907,1.053783 0.85011,1.873944 1.055853,2.69419c0.300328,1.197333 0.358409,1.962742 0.474369,3.015013c0.104993,0.952899 0.327027,2.086234 0.710453,2.831399c0.402359,0.782 1.249387,1.869881 1.669719,2.490875c0.647249,0.956282 1.177858,1.953665 1.410659,2.962658c0.221274,0.959155 0.328708,2.166907 0.612545,2.964154c0.297286,0.835085 0.621992,1.437193 1.103726,3.002961c0.138416,0.449839 0.383866,1.387695 0.582564,2.328236c0.271829,1.286794 0.425135,2.318139 0.462601,3.327864c0.038106,1.02713 0.005884,1.826927 0.005884,2.99606c0,0.934082 0,1.63665 0,2.78739c0,1.206461 0,1.984772 0,3.318583c0,0.894171 0,1.85664 0,2.808196c0,1.090771 0,1.98195 0,2.873163c0,1.118988 0.020094,1.822575 -0.00044,3.142924c-0.01393,0.895904 0.006324,1.862249 -0.580163,2.959888c-0.427497,0.800103 -1.295619,1.319362 -1.898598,2.416253c-0.369056,0.671393 -0.66258,1.783616 -1.19511,2.527251c-0.703328,0.982187 -1.357542,1.778448 -1.682408,2.639439c-0.407243,1.079382 -0.839783,1.723136 -1.623127,2.578517c-0.636442,0.694986 -1.419025,1.338026 -2.46367,2.227777c-0.772136,0.657624 -1.499201,1.273297 -2.511544,2.131636l-0.761849,0.584838" fill="none" id="svg_1" stroke="#000000" stroke-width="5" transform="rotate(34.7368 351.554 252.164)"/>
  <text fill="#000000" font-family="Cursive" font-size="24" id="svg_2" stroke="#000000" stroke-dasharray="null" stroke-linecap="null" stroke-linejoin="null" stroke-width="0" text-anchor="middle" transform="matrix(1.36782 0 0 2.34615 -24.4655 -352.019)" x="117.768908" xml:space="preserve" y="253.942623">hello there</text>
 </g>
</svg>